#tb 0: 4/125
0,          0,          0,        1,   152064, 0x4bb46551
0,          1,          1,        1,   152064, 0x40692c80
0,          2,          2,        1,   152064, 0xd7ad04cb
0,          3,          3,        1,   152064, 0xd7ad04cb
0,          4,          4,        1,   152064, 0x2a8380b0
0,          5,          5,        1,   152064, 0xedb5a8e6
0,          6,          6,        1,   152064, 0x549dfa8a
0,          7,          7,        1,   152064, 0x447bc7b9
0,          8,          8,        1,   152064, 0x447bc7b9
0,          9,          9,        1,   152064, 0x5ab58bac
0,         10,         10,        1,   152064, 0x91373915
0,         11,         11,        1,   152064, 0x90895a6e
0,         12,         12,        1,   152064, 0x793d075e
0,         13,         13,        1,   152064, 0x793d075e
0,         14,         14,        1,   152064, 0x30f5fcd5
0,         15,         15,        1,   152064, 0x24eca223
0,         16,         16,        1,   152064, 0x0a4073dc
0,         17,         17,        1,   152064, 0x06e34d70
0,         18,         18,        1,   152064, 0x06e34d70
0,         19,         19,        1,   152064, 0xa91c0f05
0,         20,         20,        1,   152064, 0xb15d38c8
0,         21,         21,        1,   152064, 0x6b2b2e46
0,         22,         22,        1,   152064, 0xbd2320cb
0,         23,         23,        1,   152064, 0xbd2320cb
0,         24,         24,        1,   152064, 0xf34ddbff
0,         25,         25,        1,   152064, 0x9dc72412
0,         26,         26,        1,   152064, 0xa1242020
0,         27,         27,        1,   152064, 0x1f939e6a
0,         28,         28,        1,   152064, 0x1f939e6a
0,         29,         29,        1,   152064, 0x2f2768ef
0,         30,         30,        1,   152064, 0x95579936
0,         31,         31,        1,   152064, 0x41181cbd
0,         32,         32,        1,   152064, 0xe9cec847
0,         33,         33,        1,   152064, 0xe9cec847
0,         34,         34,        1,   152064, 0xd780d887
0,         35,         35,        1,   152064, 0x6dc3650e
0,         36,         36,        1,   152064, 0x8d165d23
0,         37,         37,        1,   152064, 0x64f10efa
0,         38,         38,        1,   152064, 0x64f10efa
0,         39,         39,        1,   152064, 0xe295c51e
0,         40,         40,        1,   152064, 0xe22f7a30
0,         41,         41,        1,   152064, 0xd8c68892
0,         42,         42,        1,   152064, 0x26516b0e
0,         43,         43,        1,   152064, 0x26516b0e
0,         44,         44,        1,   152064, 0xfa8d94fb
0,         45,         45,        1,   152064, 0xa50d01f8
0,         46,         46,        1,   152064, 0x82f12165
0,         47,         47,        1,   152064, 0x113fadc0
0,         48,         48,        1,   152064, 0x113fadc0
0,         49,         49,        1,   152064, 0x88734edd
0,         50,         50,        1,   152064, 0xd4e49e08
0,         51,         51,        1,   152064, 0x8cd54fc5
0,         52,         52,        1,   152064, 0xae821cac
0,         53,         53,        1,   152064, 0xae821cac
0,         54,         54,        1,   152064, 0x575c20ec
0,         55,         55,        1,   152064, 0x61b47e73
0,         56,         56,        1,   152064, 0x213d5314
0,         57,         57,        1,   152064, 0xb4ddd391
0,         58,         58,        1,   152064, 0xb4ddd391
0,         59,         59,        1,   152064, 0x6e88c5c2
0,         60,         60,        1,   152064, 0x4bbad8ea
0,         61,         61,        1,   152064, 0x4bbad8ea
